<svg
   width="16"
   height="18"
   viewBox="0 0 16 18"
   fill="none"
   xmlns="http://www.w3.org/2000/svg">
<path 
fill="#ff0000" stroke="none"
d="M 8 0.5 C 7.2927614 0.5 6.6153334 0.781153 6.1152344 1.28125 C 5.7075232 1.6889693 5.448137 2.2155723 5.3652344 2.7792969 C 3.3747491 3.7551101 2 5.7973729 2 8.1660156 L 2 10.798828 C 2 10.981928 1.9268548 11.159064 1.796875 11.289062 L 0.62695312 12.458984 C 0.3409557 12.744984 0.25537555 13.175228 0.41015625 13.548828 C 0.56493695 13.922528 0.92951916 14.166016 1.3339844 14.166016 L 4.5078125 14.166016 C 4.5491436 15.033639 4.9084056 15.857606 5.5253906 16.474609 C 6.1817694 17.131009 7.0717518 17.5 8 17.5 C 8.9282582 17.5 9.818211 17.131009 10.474609 16.474609 C 11.091614 15.857606 11.450862 15.033639 11.492188 14.166016 L 14.666016 14.166016 C 15.070414 14.166016 15.435144 13.922528 15.589844 13.548828 C 15.744644 13.175228 15.659047 12.744984 15.373047 12.458984 L 14.203125 11.289062 C 14.138725 11.224664 14.087634 11.148653 14.052734 11.064453 C 14.017934 10.980353 14 10.889828 14 10.798828 L 14 8.1660156 C 14.0002 6.9250182 13.614736 5.7145699 12.898438 4.7011719 C 12.315596 3.8765865 11.535146 3.2200084 10.634766 2.7792969 C 10.551851 2.2155723 10.292469 1.6889693 9.8847656 1.28125 C 9.3846666 0.781153 8.7072486 0.5 8 0.5 z" />
</svg>
