<svg width="16" height="18" viewBox="0 0 16 18" fill="none" xmlns="http://www.w3.org/2000/svg">
<path d="M10.5 13.1667H14.6667L13.4958 11.9958C13.3386 11.8386 13.2139 11.6519 13.1288 11.4464C13.0437 11.2409 13 11.0207 13 10.7983V8.16667C13.0001 7.13245 12.6797 6.12362 12.0827 5.27907C11.4857 4.43453 10.6417 3.7958 9.66667 3.45083V3.16667C9.66667 2.72464 9.49107 2.30072 9.17851 1.98816C8.86595 1.67559 8.44203 1.5 8 1.5C7.55797 1.5 7.13405 1.67559 6.82149 1.98816C6.50893 2.30072 6.33334 2.72464 6.33334 3.16667V3.45083C4.39167 4.1375 3 5.99 3 8.16667V10.7992C3 11.2475 2.82167 11.6783 2.50417 11.9958L1.33334 13.1667H5.5M10.5 13.1667V14C10.5 14.663 10.2366 15.2989 9.76777 15.7678C9.29893 16.2366 8.66304 16.5 8 16.5C7.33696 16.5 6.70108 16.2366 6.23224 15.7678C5.76339 15.2989 5.5 14.663 5.5 14V13.1667M10.5 13.1667H5.5" stroke="black" stroke-width="2" stroke-linecap="round" stroke-linejoin="round"/>
</svg>
