<svg width="6" height="5" viewBox="0 0 6 5" xmlns="http://www.w3.org/2000/svg">
<path d="M5.06735 0.152213C5.17103 0.0535033 5.309 -0.00106733 5.45215 1.58212e-05C5.59531 0.00109898 5.73244 0.0577514 5.83462 0.158019C5.93679 0.258286 5.99602 0.394325 5.99981 0.537432C6.00359 0.680538 5.95163 0.819517 5.8549 0.925044L2.91814 4.59783C2.86764 4.65222 2.80669 4.69587 2.73894 4.72617C2.67119 4.75647 2.59802 4.77279 2.52381 4.77416C2.44961 4.77554 2.37589 4.76193 2.30706 4.73417C2.23823 4.7064 2.17571 4.66503 2.12323 4.61255L0.175696 2.66502C0.121461 2.61448 0.0779598 2.55354 0.0477885 2.48582C0.0176172 2.41811 0.00139367 2.34501 8.59092e-05 2.27089C-0.00122186 2.19677 0.012413 2.12314 0.0401768 2.05441C0.0679405 1.98567 0.109265 1.92323 0.161684 1.87081C0.214103 1.81839 0.276543 1.77707 0.345279 1.74931C0.414016 1.72154 0.48764 1.70791 0.56176 1.70922C0.635881 1.71052 0.708978 1.72675 0.776692 1.75692C0.844406 1.78709 0.90535 1.83059 0.955887 1.88483L2.49713 3.42533L5.05336 0.168406C5.05796 0.162739 5.06288 0.157333 5.06808 0.152213H5.06735Z" fill="#F2F2F2"/>
</svg>