<?xml version="1.0" encoding="UTF-8" standalone="no"?>
<svg
   width="16.99979"
   height="16.999729"
   viewBox="0 0 16.99979 16.999729"
   fill="none"
   version="1.1"
   id="svg52"
   sodipodi:docname="down.svg"
   inkscape:version="1.2 (dc2aedaf03, 2022-05-15)"
   xmlns:inkscape="http://www.inkscape.org/namespaces/inkscape"
   xmlns:sodipodi="http://sodipodi.sourceforge.net/DTD/sodipodi-0.dtd"
   xmlns="http://www.w3.org/2000/svg"
   xmlns:svg="http://www.w3.org/2000/svg">
  <sodipodi:namedview
     id="namedview54"
     pagecolor="#ffffff"
     bordercolor="#999999"
     borderopacity="1"
     inkscape:showpageshadow="0"
     inkscape:pageopacity="0"
     inkscape:pagecheckerboard="0"
     inkscape:deskcolor="#d1d1d1"
     showgrid="false"
     inkscape:zoom="10.679546"
     inkscape:cx="46.86529"
     inkscape:cy="48.972121"
     inkscape:window-width="3840"
     inkscape:window-height="2066"
     inkscape:window-x="-11"
     inkscape:window-y="-11"
     inkscape:window-maximized="1"
     inkscape:current-layer="svg52" />
  <path
     style="color:#000000;fill:#000000;stroke-width:1;stroke-linecap:round;stroke-linejoin:round;-inkscape-stroke:none"
     d="m 8.4999601,0 a 1.1085036,1.1085036 0 0 0 -1.10849,1.10852 v 8.40905 l -1.80132,-1.80132 a 1.1085036,1.1085036 0 0 0 -1.56965,0 1.1085036,1.1085036 0 0 0 0,1.56749 L 7.71621,12.97945 A 1.1085036,1.1085036 0 0 0 8.4999601,13.30203 1.1085036,1.1085036 0 0 0 9.2837,12.97945 l 3.69576,-3.69571 a 1.1085036,1.1085036 0 0 0 0,-1.56749 1.1085036,1.1085036 0 0 0 -1.56966,0 L 9.60848,9.51757 V 1.10852 A 1.1085036,1.1085036 0 0 0 8.4999601,0 Z m -7.39148,11.08506 A 1.1085036,1.1085036 0 0 0 0,12.19354 v 0.92667 c 0,1.02816 0.41012,2.01459 1.1366601,2.74091 4.3e-4,4.7e-4 0.002,-4.2e-4 0.002,0 4.301e-4,4.7e-4 -4.199e-4,0.002 0,0.002 0.72637,0.7267 1.7127501,1.13661 2.74095,1.13661 H 13.12001 c 1.02922,0 2.01658,-0.41054 2.74312,-1.13883 0.72675,-0.72632 1.13666,-1.71275 1.13666,-2.74091 v -0.92666 a 1.1085036,1.1085036 0 0 0 -1.10849,-1.10849 1.1085036,1.1085036 0 0 0 -1.10852,1.10849 v 0.92666 c 0,0.44065 -0.17553,0.86246 -0.48714,1.17343 a 1.1086144,1.1086144 0 0 0 -0.002,0.002 c -0.3111,0.31153 -0.73278,0.48714 -1.17347,0.48714 H 3.8797801 c -0.44068,0 -0.86245,-0.17553 -1.17347,-0.48714 a 1.1086144,1.1086144 0 0 0 -0.002,-0.002 c -0.31152,-0.3111 -0.48713,-0.73278 -0.48713,-1.17343 v -0.92666 a 1.1085036,1.1085036 0 0 0 -1.10849,-1.10849 z"
     id="path38" />
  <defs
     id="defs50" />
</svg>
