<?xml version="1.0" encoding="UTF-8" standalone="no"?>
<svg
   width="16.998911"
   height="17.000734"
   viewBox="0 0 16.998911 17.000734"
   fill="none"
   version="1.1"
   id="svg52"
   sodipodi:docname="share.svg"
   inkscape:version="1.2 (dc2aedaf03, 2022-05-15)"
   xmlns:inkscape="http://www.inkscape.org/namespaces/inkscape"
   xmlns:sodipodi="http://sodipodi.sourceforge.net/DTD/sodipodi-0.dtd"
   xmlns="http://www.w3.org/2000/svg"
   xmlns:svg="http://www.w3.org/2000/svg">
  <sodipodi:namedview
     id="namedview54"
     pagecolor="#ffffff"
     bordercolor="#999999"
     borderopacity="1"
     inkscape:showpageshadow="0"
     inkscape:pageopacity="0"
     inkscape:pagecheckerboard="0"
     inkscape:deskcolor="#d1d1d1"
     showgrid="false"
     inkscape:zoom="60.409162"
     inkscape:cx="21.097793"
     inkscape:cy="11.537985"
     inkscape:window-width="3840"
     inkscape:window-height="2066"
     inkscape:window-x="-11"
     inkscape:window-y="-11"
     inkscape:window-maximized="1"
     inkscape:current-layer="svg52" />
  <path
     style="color:#000000;fill:#000000;stroke-linecap:round;stroke-linejoin:round;-inkscape-stroke:none"
     d="m 13.24812,0.00897775 c -0.45451,0.0324 -0.90134,0.15345 -1.31641,0.36133 -0.83045,0.41453 -1.46131,1.14340995 -1.7539,2.02538995 -0.1837497,0.55139 -0.17647,1.12504 -0.0801,1.6875 l -4.2265597,2.11524 c -0.29286,-0.30085 -0.5031604,-0.68709 -0.8886804,-0.86719 h -0.002 c -0.71426,-0.33423 -1.51947,-0.41657 -2.2851499,-0.23633 -0.76806,0.1808 -1.4523,0.61669 -1.94141,1.23437 C 0.2648,6.9473377 0,7.7131877 0,8.5011677 c 0,0.78798 0.2648,1.5538303 0.75391,2.1718703 0.48911,0.61769 1.17335,1.05358 1.94141,1.23438 0.7677699,0.18167 1.7636399,0.0712 2.2851499,-0.23438 0.52151,-0.30563 0.7447504,-0.62926 0.8906804,-0.86919 l 4.2265597,2.11524 c -0.0965,0.56331 -0.1042597,1.13732 0.0801,1.68945 0.29297,0.88028 0.92587,1.60844 1.75586,2.02344 0.82909,0.41384 1.78965,0.48279 2.66992,0.18945 0.88101,-0.29273 1.61014,-0.92535 2.02539,-1.75586 0.41384,-0.82909 0.48279,-1.78965 0.18945,-2.66992 v -0.002 c -0.29297,-0.88028 -0.92587,-1.60844 -1.75586,-2.02344 v -0.002 c -0.40844,-0.20353 -0.85551,-0.32669 -1.31445,-0.35938 h -0.004 c -0.45947,-0.0332 -0.9193,0.0271 -1.35351,0.17188 -0.55221,0.18378 -1.00617,0.53414 -1.39844,0.94922 L 6.8652203,9.0674277 c 0.0335,-0.19403 0.0662,-0.37912 0.0662,-0.58164 0,-0.20252 -0.0327,-0.35685 -0.0662,-0.55103 l 4.1269497,-2.06445 c 0.0808,0.0856 0.12528,0.20001 0.21484,0.27734 0.34689,0.30027 0.74967,0.52873 1.1836,0.67383 0.43666,0.14556 0.89639,0.20393 1.35351,0.17188 0.46042,-0.0323 0.90835,-0.15632 1.31836,-0.36133 0.41164,-0.20582 0.7776,-0.49089 1.07813,-0.83594 l 0.002,-0.002 c 0.30113,-0.34735 0.53039,-0.75078 0.67578,-1.18555 6.7e-4,-0.001 10e-4,-0.003 0.002,-0.004 0.14323,-0.43388 0.20219,-0.89274 0.16992,-1.35157 v -0.002 c -0.0334,-0.45621 -0.15633,-0.90391 -0.36328,-1.31641 h 0.002 c -0.41538,-0.82936 -1.14354,-1.46013995 -2.02344,-1.75389995 -0.44039,-0.14703 -0.90291,-0.20427 -1.35742,-0.17188 z m 0.72266,2.06835995 c 0.37809,0.12623 0.69052,0.39727 0.86914,0.75391 0.087,0.1735 0.13967,0.36661 0.15429,0.5664 0.0131,0.19394 -0.0119,0.39121 -0.0742,0.58008 -0.0626,0.18625 -0.16078,0.35789 -0.28906,0.50586 -0.13109,0.14997 -0.28734,0.2716 -0.46289,0.35938 -0.17799,0.089 -0.36692,0.14058 -0.5625,0.15429 -0.19887,0.014 -0.3947,-0.01 -0.58203,-0.0723 -0.18723,-0.0626 -0.35916,-0.16215 -0.50781,-0.29102 h -0.002 c -0.14793,-0.12773 -0.26889,-0.28434 -0.35742,-0.46094 -3e-4,-6e-4 3e-4,-10e-4 0,-0.002 -0.17725,-0.3563 -0.20785,-0.7657 -0.082,-1.14258 v -0.002 c 0.12541,-0.37802 0.39641,-0.68971 0.75195,-0.86719 0.35587,-0.17823 0.76732,-0.20797 1.14454,-0.082 z m -10.8183601,4.96485 c 0.32966,-0.0776 0.67518,-0.0435 0.98047,0.0996 l 0.002,0.002 c 0.3054,0.14252 0.55388,0.3851 0.70508,0.6875 0.10056,0.20112 0.1582,0.42547 0.1582,0.66992 0,0.24445 -0.0576,0.4688 -0.1582,0.66992 -0.1512,0.3024 -0.40038,0.54575 -0.70703,0.68945 -0.30645,0.1425203 -0.65153,0.1791403 -0.97852,0.10157 l -0.002,-0.002 c -0.32795,-0.0772 -0.6191999,-0.26297 -0.8300799,-0.52929 -0.20889,-0.26396 -0.32227,-0.59168 -0.32227,-0.92969 0,-0.33801 0.11338,-0.66573 0.32227,-0.92969 0.21088,-0.26632 0.5021299,-0.45209 0.8300799,-0.52929 z M 13.60164,12.005078 h 0.004 c 0.19509,0.0137 0.38654,0.0669 0.5625,0.15429 0.3575,0.17875 0.62865,0.48825 0.75391,0.86524 v 0.002 c 0.12572,0.37658 0.095,0.78863 -0.082,1.14453 -0.17875,0.3575 -0.48825,0.62865 -0.86524,0.75391 h -0.002 c -0.37658,0.12572 -0.78863,0.095 -1.14453,-0.082 -0.3575,-0.17875 -0.62865,-0.48825 -0.75391,-0.86524 v -0.002 c -0.12572,-0.37658 -0.095,-0.78863 0.082,-1.14453 2e-4,-4e-4 -2e-4,-0.002 0,-0.002 0.17903,-0.35577 0.49006,-0.62729 0.86524,-0.75195 h 0.002 c 0.18855,-0.0629 0.3849,-0.0865 0.57813,-0.0723 z"
     id="path32"
     sodipodi:nodetypes="sccccccscscczcccccccccccccccsccccssscccssccssssscccsscccsccccsssccssscccsssssccccccccccscccss" />
  <defs
     id="defs50" />
</svg>
