<?xml version="1.0" encoding="UTF-8" standalone="no"?>
<svg
   width="16.803215"
   height="17.000351"
   viewBox="0 0 16.803215 17.000351"
   fill="none"
   version="1.1"
   id="svg52"
   sodipodi:docname="thdwn.svg"
   inkscape:version="1.2 (dc2aedaf03, 2022-05-15)"
   xmlns:inkscape="http://www.inkscape.org/namespaces/inkscape"
   xmlns:sodipodi="http://sodipodi.sourceforge.net/DTD/sodipodi-0.dtd"
   xmlns="http://www.w3.org/2000/svg"
   xmlns:svg="http://www.w3.org/2000/svg">
  <sodipodi:namedview
     id="namedview54"
     pagecolor="#ffffff"
     bordercolor="#999999"
     borderopacity="1"
     inkscape:showpageshadow="0"
     inkscape:pageopacity="0"
     inkscape:pagecheckerboard="0"
     inkscape:deskcolor="#d1d1d1"
     showgrid="false"
     inkscape:zoom="60.410463"
     inkscape:cx="-0.074490407"
     inkscape:cy="10.180356"
     inkscape:window-width="3840"
     inkscape:window-height="2066"
     inkscape:window-x="-11"
     inkscape:window-y="-11"
     inkscape:window-maximized="1"
     inkscape:current-layer="svg52" />
  <path
     style="color:#000000;fill:#000000;stroke-linecap:round;stroke-linejoin:round;-inkscape-stroke:none"
     d="m 5.5844642,7e-5 c -0.49495,0 -0.98188,0.13663 -1.4043,0.39844 -0.4202,0.26043 -0.76057,0.63211 -0.98242,1.07422 a 1.0001,1.0001 0 0 0 0,0.002 L 0.28173397,7.30871 a 1.0001,1.0001 0 0 0 -0.002,0.002 c -0.20078,0.40474 -0.29646,0.85427 -0.27734,1.30664 a 1.0001,1.0001 0 0 0 0,0.004 c 0.0208,0.45334 0.157,0.8953 0.39844,1.28321 0.23936,0.38691 0.57239,0.70387 0.96484013,0.92382 a 1.0001,1.0001 0 0 0 0.004,0.002 c 0.3955201,0.22009 0.8415101,0.33789 1.2968701,0.33789 h 2.96875 v 3.16406 c 0,0.70746 0.28322,1.38709 0.78125,1.88672 a 1.0001,1.0001 0 0 0 0.002,0.002 c 0.49963,0.49803 1.17731,0.7793 1.88477,0.7793 h 0.0781 c 0.95577,0 1.7539098,-0.79814 1.7539098,-1.75391 0,-0.3978 0.11913,-0.7871 0.33984,-1.11718 l 1.97461,-2.96094 h 1.68555 c 0.70746,0 1.38709,-0.28322 1.88672,-0.78125 a 1.0001,1.0001 0 0 0 0.002,-0.002 c 0.4979,-0.49986 0.77917,-1.17754 0.77917,-1.885 v -5 c 0,-0.70746 -0.28127,-1.38514 -0.7793,-1.88477 a 1.0001,1.0001 0 0 0 -0.002,-0.002 c -0.49963,-0.49803 -1.17926,-0.78124998 -1.88672,-0.78124998 h -1.54687 L 9.5785542,0.0801 h -0.002 C 9.3667442,0.0278 9.1507042,0 8.9320242,0 Z m 0,2 h 3.34766 c 0.0527,0 0.10655,0.006 0.16015,0.0195 l 2.3789098,0.59375 v 6.41602 l -2.6601598,3.99023 c -0.38491,0.57621 -0.53854,1.25881 -0.58984,1.94531 -0.14208,-0.0197 -0.28462,-0.0553 -0.38867,-0.1582 l -0.002,-0.002 c -0.12479,-0.12618 -0.19531,-0.297 -0.19531,-0.47266 v -3.16406 h 0.66801 a 1,1 0 0 0 1,-1 1,1 0 0 0 -1,-1 h -1.66797 -3.96875 c -0.11264,0 -0.22374,-0.03 -0.32422,-0.0859 -0.10079,-0.057 -0.18423,-0.13634 -0.24219,-0.23047 a 1.0001,1.0001 0 0 0 -0.002,-0.004 c -0.0579,-0.093 -0.0918,-0.2012 -0.0977,-0.31446 v -0.002 c -4e-5,-6.4e-4 3e-5,-10e-4 0,-0.002 -0.004,-0.11289 0.019,-0.22509 0.0684,-0.32618 l 0.002,-0.004 2.91601,-5.82813 v -0.002 c 0.0562,-0.11132 0.14267,-0.20422 0.24805,-0.26953 0.10358,-0.0642 0.22456,-0.0996 0.34961,-0.0996 z M 13.471184,2.8321 h 0.66406 c 0.17654,0 0.34824,0.0713 0.47461,0.19727 0.12479,0.12617 0.19336,0.29504 0.19336,0.4707 v 5 c 0,0.17566 -0.0686,0.34453 -0.19336,0.4707 -4.4e-4,4.5e-4 -0.002,-4.4e-4 -0.002,0 -4.5e-4,4.5e-4 4.4e-4,0.002 0,0.002 -0.12618,0.12479 -0.297,0.19531 -0.47266,0.19531 h -0.66406 z"
     id="path28" />
  <defs
     id="defs50" />
</svg>
