<?xml version="1.0" encoding="UTF-8" standalone="no"?>
<svg
   width="16.803265"
   height="17.000071"
   viewBox="0 0 16.803265 17.000071"
   fill="none"
   version="1.1"
   id="svg52"
   sodipodi:docname="thup.svg"
   inkscape:version="1.2 (dc2aedaf03, 2022-05-15)"
   xmlns:inkscape="http://www.inkscape.org/namespaces/inkscape"
   xmlns:sodipodi="http://sodipodi.sourceforge.net/DTD/sodipodi-0.dtd"
   xmlns="http://www.w3.org/2000/svg"
   xmlns:svg="http://www.w3.org/2000/svg">
  <sodipodi:namedview
     id="namedview54"
     pagecolor="#ffffff"
     bordercolor="#999999"
     borderopacity="1"
     inkscape:showpageshadow="0"
     inkscape:pageopacity="0"
     inkscape:pagecheckerboard="0"
     inkscape:deskcolor="#d1d1d1"
     showgrid="false"
     inkscape:zoom="7.5514435"
     inkscape:cx="-43.104342"
     inkscape:cy="25.425602"
     inkscape:window-width="3840"
     inkscape:window-height="2066"
     inkscape:window-x="-11"
     inkscape:window-y="-11"
     inkscape:window-maximized="1"
     inkscape:current-layer="svg52" />
  <path
     style="color:#000000;fill:#000000;stroke-linecap:round;stroke-linejoin:round;-inkscape-stroke:none"
     d="m 8.42187,0 c -0.95576,0 -1.7539,0.79814 -1.7539,1.75391 0,0.3978 -0.11913,0.7871 -0.33985,1.11718 L 4.35352,5.83203 H 2.66797 c -0.70746,0 -1.38709,0.28322 -1.88672,0.78125 a 1.0001,1.0001 0 0 0 -0.002,0.002 C 0.28127,7.11486 0,7.79254 0,8.5 v 5 c 0,0.70746 0.28127,1.38514 0.7793,1.88477 a 1.0001,1.0001 0 0 0 0.002,0.002 c 0.49963,0.49803 1.17926,0.78125 1.88672,0.78125 h 1.54687 l 3.00977,0.75195 c 0.21039,0.0526 0.42715,0.0801 0.64648,0.0801 h 3.34766 c 0.49495,0 0.98188,-0.13663 1.4043,-0.39844 0.4202,-0.26043 0.76057,-0.63211 0.98242,-1.07422 a 1.0001,1.0001 0 0 0 0,-0.002 l 2.91601,-5.83398 a 1.0001,1.0001 0 0 0 0.002,-0.002 c 0.20078,-0.40474 0.29646,-0.85427 0.27734,-1.30664 a 1.0001,1.0001 0 0 0 0,-0.004 C 16.78007,7.92545 16.64387,7.48349 16.40243,7.09558 16.16307,6.70867 15.83004,6.39171 15.43759,6.17175 a 1.0001,1.0001 0 0 0 -0.004,-0.002 C 15.03807,5.94966 14.59208,5.83186 14.13672,5.83186 H 11.16797 V 2.6678 c 0,-0.70746 -0.28322,-1.38709 -0.78125,-1.88672 a 1.0001,1.0001 0 0 0 -0.002,-0.002 C 9.88514,0.28127 9.20746,0 8.5,0 Z m 0.16016,2.03516 c 0.14295,0.0199 0.2863,0.0562 0.39063,0.16015 0.12479,0.12618 0.19531,0.297 0.19531,0.47266 V 5.83203 H 8.5 a 1,1 0 0 0 -1,1 1,1 0 0 0 1,1 h 1.66797 3.96875 c 0.11264,0 0.22374,0.03 0.32422,0.0859 0.10079,0.057 0.18423,0.13634 0.24218,0.23047 a 1.0001,1.0001 0 0 0 0.002,0.004 c 0.0586,0.0941 0.0924,0.2037 0.0977,0.31836 0.004,0.11432 -0.0197,0.22798 -0.0703,0.33008 l -2.91601,5.83008 c -0.0562,0.11132 -0.14267,0.20422 -0.24805,0.26953 -0.10358,0.0642 -0.22456,0.0996 -0.34961,0.0996 H 7.87119 c -0.0527,0 -0.10655,-0.006 -0.16015,-0.0195 L 5.33213,14.3868 V 7.97078 L 7.99229,3.9825 V 3.9805 C 8.3772,3.40429 8.53083,2.72169 8.58213,2.03519 Z M 2.66797,7.83203 h 0.66406 v 6.33594 H 2.66797 c -0.17566,0 -0.34648,-0.0705 -0.47266,-0.19531 l -0.002,-0.002 C 2.06857,13.84453 2,13.67566 2,13.5 v -5 C 2,8.32346 2.0693,8.15372 2.19531,8.02734 2.32149,7.90255 2.49231,7.83203 2.66797,7.83203 Z"
     id="path22" />
  <defs
     id="defs50" />
</svg>
